<svg id="图层_1" data-name="图层 1" xmlns="http://www.w3.org/2000/svg" viewBox="0 0 1137.49 293.15"><defs><style>.cls-1{font-size:217.7px;font-family:Roboto-MediumItalic, Roboto;font-weight:500;font-style:italic;}.cls-1,.cls-2{fill:#575757;}</style></defs><text class="cls-1" transform="translate(0 186.24) scale(0.97 1)">LinkSensate</text><path class="cls-2" d="M652.08,508.26,655,509a79.93,79.93,0,0,1-9.43,15.58,76.36,76.36,0,0,1-13.22,13.53,2.59,2.59,0,0,0-.68-.61,6.23,6.23,0,0,1-.84-.65,4.71,4.71,0,0,0-.76-.57,68.45,68.45,0,0,0,9.2-8.36,76.28,76.28,0,0,0,7.56-9.69A57.54,57.54,0,0,0,652.08,508.26Zm-13.45,27.66h3v33.75a3,3,0,0,0,.91,2.54c.61.43,2,.65,4,.65h15.73a4.18,4.18,0,0,0,2.85-.84,5.49,5.49,0,0,0,1.33-3.3,66.66,66.66,0,0,0,.54-7.41,4.87,4.87,0,0,0,1.36.79,10.53,10.53,0,0,0,1.45.5,47.76,47.76,0,0,1-.88,8,6.76,6.76,0,0,1-2.12,4,7.24,7.24,0,0,1-4.45,1.14H646.61a18.3,18.3,0,0,1-4.79-.5,3.85,3.85,0,0,1-2.47-1.78,8,8,0,0,1-.72-3.8Zm1.21,0h23v2.81h-23Zm21.89,0h2.89a11.31,11.31,0,0,1-.08,1.6q-.37,6.76-.83,10.87a42.1,42.1,0,0,1-1.07,6.27,7,7,0,0,1-1.44,3,3.73,3.73,0,0,1-1.52,1.06,8,8,0,0,1-2.2.38c-.66,0-1.65,0-3,0s-2.66-.08-4-.19a8.47,8.47,0,0,0-.3-1.36,8.33,8.33,0,0,0-.53-1.37c1.57.15,3,.25,4.33.3s2.23.08,2.74.08a5.91,5.91,0,0,0,1.33-.12,1.52,1.52,0,0,0,.87-.57,6.65,6.65,0,0,0,1.1-2.69,51.31,51.31,0,0,0,1-6q.46-4,.76-10.64Zm-11.17-22.8,2.13-1.44q3.49,3.42,7.18,7.41t6.92,7.75c2.15,2.51,3.91,4.72,5.28,6.65l-2.21,1.9q-2-2.89-5.24-6.73t-6.88-7.94Q654.05,516.63,650.56,513.12Zm27.21,3.8h2.81v41.42h-2.81Zm15.05-8h3v62.63a4.83,4.83,0,0,1-.72,2.92A4.27,4.27,0,0,1,693,575.9a20.19,20.19,0,0,1-4.41.42c-2,0-4.71,0-8.21,0a10.48,10.48,0,0,0-.49-1.33,9.49,9.49,0,0,0-.8-1.48l5.28.11q2.4,0,4.11,0c1.14,0,1.93,0,2.39,0a2.48,2.48,0,0,0,1.52-.49,1.83,1.83,0,0,0,.46-1.41Z" transform="translate(-110.91 -284.12)"/><path class="cls-2" d="M721.17,536.91v29.64h-3V539.8h-11v-2.89Zm-.84,28.27a5.34,5.34,0,0,1,3.3,1.18,40.67,40.67,0,0,0,4.37,2.77,21.82,21.82,0,0,0,8.21,2.44,100.58,100.58,0,0,0,10.87.53q3.57,0,7.49-.08c2.61,0,5.2-.11,7.79-.19s5.06-.2,7.44-.38l6.54-.49c-.1.25-.23.58-.38,1a10.07,10.07,0,0,0-.38,1.25c-.1.43-.18.8-.23,1.1-1.62.1-3.64.2-6.08.31s-5,.19-7.67.26-5.3.14-7.83.19-4.76.08-6.69.08a84.16,84.16,0,0,1-11.44-.69,24,24,0,0,1-8.62-2.73q-2.13-1.29-3.8-2.51a5.26,5.26,0,0,0-2.89-1.22,6.19,6.19,0,0,0-3.08,1,25.65,25.65,0,0,0-3.69,2.77c-1.31,1.17-2.66,2.46-4,3.88L707.41,573a57.52,57.52,0,0,1,6.84-5.55A11.08,11.08,0,0,1,720.33,565.18ZM710,512.89l2.28-1.44a53.89,53.89,0,0,1,4.37,3.84q2.25,2.16,4.18,4.25a37.63,37.63,0,0,1,3.16,3.84l-2.36,1.67a36.59,36.59,0,0,0-3.08-3.8c-1.29-1.41-2.68-2.86-4.18-4.33S711.41,514.11,710,512.89Zm16.27,20.6H775v2.74H726.26ZM738,509.09l2.81.69A71.9,71.9,0,0,1,735.79,521a50.12,50.12,0,0,1-6.42,9.19,3.94,3.94,0,0,0-.72-.53c-.33-.2-.65-.41-.95-.61a2.37,2.37,0,0,0-.84-.38,45,45,0,0,0,6.46-8.93A59.74,59.74,0,0,0,738,509.09Zm-5.25,34.66h35.72v20.82H732.79ZM735,518.21h36.48V521H735Zm.76,28.35v15.2h29.79v-15.2ZM749.44,508h2.88v27.21h-2.88Z" transform="translate(-110.91 -284.12)"/><path class="cls-2" d="M783.94,513.5h67v3h-67Zm8.44,16.27h2.88v33.74h-2.88Zm1.21,0h29v27.51h-29v-3h26V532.65h-26Zm44.54-15.2h3v56.54a6.49,6.49,0,0,1-.69,3.38,3.89,3.89,0,0,1-2.58,1.56,31.35,31.35,0,0,1-5.59.42c-2.55,0-5.63,0-9.23,0a4.66,4.66,0,0,0-.34-1,12.12,12.12,0,0,1-.46-1.22,5.76,5.76,0,0,0-.49-1.14c2.23.1,4.32.17,6.27.19s3.62,0,5,0l3,0a2.85,2.85,0,0,0,1.63-.57,2.33,2.33,0,0,0,.42-1.63Z" transform="translate(-110.91 -284.12)"/><path class="cls-2" d="M865.87,516.16h2.89v11.33q0,3-.27,6.68a61.39,61.39,0,0,1-1,7.49,49.43,49.43,0,0,1-2.12,7.56,31.06,31.06,0,0,1-3.58,6.92,3.12,3.12,0,0,0-.64-.76q-.42-.39-.84-.72a3,3,0,0,0-.8-.5,28.67,28.67,0,0,0,4.15-8.78,54.67,54.67,0,0,0,1.78-9.38q.47-4.63.46-8.51Zm2,43.7,2.36,1.07c-1,2-2.22,4.32-3.61,6.87a38.27,38.27,0,0,1-4.45,6.58l-2.66-1.22a31,31,0,0,0,3.19-4.18c1-1.57,2-3.16,2.85-4.79S867.26,561.13,867.92,559.86Zm-.61-43.7h59.74v2.74H867.31Zm5.48,9h24.09v2.66H872.79Zm1.44,8.28h20.9v15.13h-20.9Zm1.59,23.79h2.89v13.91a1.82,1.82,0,0,0,1.18,1.9,17.43,17.43,0,0,0,5.05.46h19.92a6.79,6.79,0,0,0,3.3-.61,3.77,3.77,0,0,0,1.45-2.62,46.19,46.19,0,0,0,.64-6,8,8,0,0,0,.88.46,6.62,6.62,0,0,0,1.06.38c.38.1.72.18,1,.23a35.4,35.4,0,0,1-1,6.84,5,5,0,0,1-2.36,3.23,10.77,10.77,0,0,1-4.86.87H885.1a35.84,35.84,0,0,1-5.63-.34,4.12,4.12,0,0,1-2.85-1.48,5.68,5.68,0,0,1-.8-3.27ZM877,536.07V546h15.28v-9.88Zm10,19.54,2.43-1.3q1.89,1.68,4,3.88c1.37,1.47,2.63,2.9,3.8,4.29a29,29,0,0,1,2.74,3.77l-2.44,1.52a41.51,41.51,0,0,0-2.77-3.8Q893,561.84,891,559.6A38.69,38.69,0,0,0,887,555.61Zm31.38-31.7,2.82.61a61.16,61.16,0,0,1-9.92,17.41,63.15,63.15,0,0,1-13.87,12.61,2.38,2.38,0,0,0-.61-.68l-.91-.76a6,6,0,0,0-.84-.61A54.43,54.43,0,0,0,909,540.41,57.19,57.19,0,0,0,918.38,523.91Zm-19.38-16h3a89.44,89.44,0,0,0,2.24,17.82A69.55,69.55,0,0,0,909,539.87a33.6,33.6,0,0,0,6.15,9.28q3.27,3.26,6.23,3.26c1,0,1.75-.86,2.21-2.43a36.32,36.32,0,0,0,.91-7.67,3.9,3.9,0,0,0,1.22.79l1.29.57a36.91,36.91,0,0,1-.88,6.88,7.36,7.36,0,0,1-1.78,3.61,4.29,4.29,0,0,1-3,1.07q-4,0-7.72-3.65a36.41,36.41,0,0,1-7-10.19,72.64,72.64,0,0,1-5.24-15.08A94.9,94.9,0,0,1,899,507.88Zm8.29,1.82,1.82-1.75a38.19,38.19,0,0,1,6,2.36,25.17,25.17,0,0,1,4.86,3l-1.82,2.21a29.82,29.82,0,0,0-4.83-3.08A46.46,46.46,0,0,0,907.29,509.7ZM914,559l2.73-1.07q1.75,2.13,3.46,4.64t3.08,4.94a37.79,37.79,0,0,1,2.13,4.33L922.56,573a36,36,0,0,0-2.12-4.33q-1.38-2.43-3-5A54.85,54.85,0,0,0,914,559Z" transform="translate(-110.91 -284.12)"/><path class="cls-2" d="M952.13,520h3v15.73a80.11,80.11,0,0,1-.69,10.22,51,51,0,0,1-2.58,10.72,41.63,41.63,0,0,1-5.59,10.45,40.7,40.7,0,0,1-9.76,9.35,3.35,3.35,0,0,0-.53-.73c-.26-.28-.5-.55-.73-.83a2.56,2.56,0,0,0-.72-.65,38.6,38.6,0,0,0,9.31-8.89,39.85,39.85,0,0,0,5.29-9.88,45.26,45.26,0,0,0,2.39-10.15,85.86,85.86,0,0,0,.57-9.61Zm-7.3-12.24,3,.61a100.08,100.08,0,0,1-2.73,10,80.79,80.79,0,0,1-3.58,9,49.89,49.89,0,0,1-4.33,7.53,2.77,2.77,0,0,0-.68-.61l-1-.65a6.06,6.06,0,0,0-.91-.49,43.05,43.05,0,0,0,6.19-11.32A85.75,85.75,0,0,0,944.83,507.8ZM935.1,539h35.72v3H935.1ZM943,518.59h25.31v2.82H943Zm10.64,29.87c.56.51,1.39,1.34,2.51,2.51s2.34,2.48,3.68,3.95l4,4.41q2,2.2,3.57,4c1,1.19,1.81,2.06,2.32,2.62l-2,2.59q-.84-1.21-2.43-3.12c-1.07-1.27-2.23-2.65-3.5-4.14s-2.55-3-3.84-4.41-2.48-2.75-3.57-3.91-1.94-2.06-2.55-2.66Zm20-33.89h25.91v59.28h-2.88V517.38H976.52v57.15h-2.88Zm1,50.61h23.87v2.89H974.62Z" transform="translate(-110.91 -284.12)"/><path class="cls-2" d="M1014.68,520h2.88v54.87h-2.88Zm1.52,21.81h22.11v2.81H1016.2Zm.3-21.81h23v48.49h-23v-2.82h20.06V522.85H1016.5ZM1027,507.65l3.11.84c-.65,2.18-1.41,4.45-2.28,6.84s-1.67,4.38-2.43,6l-2.51-.76c.51-1.17,1-2.51,1.52-4s1-3.06,1.45-4.63S1026.68,508.92,1027,507.65Zm26.52-.3,2.89.6a110.29,110.29,0,0,1-3.11,11.06,100.1,100.1,0,0,1-4,10.07,50,50,0,0,1-4.87,8.36,3.94,3.94,0,0,0-.72-.53l-1-.61-.87-.53a47.79,47.79,0,0,0,4.86-8,76.06,76.06,0,0,0,3.92-9.76Q1052.3,512.74,1053.51,507.35Zm-3.26,30.7,2.27-1.37c1.57,1.83,3.18,3.81,4.83,6s3.17,4.23,4.56,6.23,2.52,3.76,3.38,5.28l-2.58,1.67a57.35,57.35,0,0,0-3.27-5.43q-2.06-3.07-4.48-6.35C1053.33,541.88,1051.76,539.87,1050.25,538.05Zm.68-18h24.24v3h-24.24Zm23.1,0h2.89v2.05q-.53,13.23-1,22.34t-1.1,14.86a67.66,67.66,0,0,1-1.44,8.82,11,11,0,0,1-1.94,4.37,5.83,5.83,0,0,1-2.2,1.75,9.3,9.3,0,0,1-3,.53,40.13,40.13,0,0,1-4.67,0c-2-.08-4-.19-6.12-.35a8.18,8.18,0,0,0-.31-1.55,3.41,3.41,0,0,0-.68-1.33c2.53.2,4.83.32,6.88.38s3.48.07,4.29.07a7.79,7.79,0,0,0,1.9-.19,2.21,2.21,0,0,0,1.29-1,9.81,9.81,0,0,0,1.75-4.14,70,70,0,0,0,1.37-8.85q.62-5.77,1.1-14.86t1-22.16Z" transform="translate(-110.91 -284.12)"/><path class="cls-2" d="M1105,508l2.89.76a117.65,117.65,0,0,1-5.28,12.47,125.23,125.23,0,0,1-6.43,11.47,73.16,73.16,0,0,1-7.22,9.66,2.88,2.88,0,0,0-.53-.84c-.25-.3-.5-.62-.76-1a7.4,7.4,0,0,0-.76-.87,62.94,62.94,0,0,0,7.07-9,100.19,100.19,0,0,0,6.19-10.91A92.24,92.24,0,0,0,1105,508Zm-7.68,18.93,2.89-2.89.08.08v52.66h-3Zm32.46-19.08,3.19.53a78.38,78.38,0,0,1-15.58,21.59,68.85,68.85,0,0,1-12.31,9.57,3.52,3.52,0,0,0-.5-.68c-.23-.25-.47-.51-.72-.76a4.06,4.06,0,0,0-.76-.61,64.24,64.24,0,0,0,11.93-9.16,75.14,75.14,0,0,0,9-10.48A56.13,56.13,0,0,0,1129.82,507.8Zm-12.32,28.81h3V547c0,2.18-.13,4.53-.38,7.07a36.39,36.39,0,0,1-1.75,7.86,30.66,30.66,0,0,1-11.55,15.32c-.26-.31-.58-.66-1-1.07a11.41,11.41,0,0,0-1.14-1,28.91,28.91,0,0,0,7.11-6.76,26.74,26.74,0,0,0,3.83-7.49,35.31,35.31,0,0,0,1.56-7.44q.35-3.62.34-6.5Zm13.23-25.69a66,66,0,0,0,7.14,9.73,82.59,82.59,0,0,0,9.12,8.93,55.68,55.68,0,0,0,9.43,6.49,5.61,5.61,0,0,0-.69.65l-.8.87a6.26,6.26,0,0,0-.64.84,62.38,62.38,0,0,1-9.46-6.92,90,90,0,0,1-9.28-9.34,69.64,69.64,0,0,1-7.33-10.19Zm8.89,25.69h3v40h-3Z" transform="translate(-110.91 -284.12)"/><path class="cls-2" d="M1181,507.88l2.89.83a118.44,118.44,0,0,1-12,23.91,79.23,79.23,0,0,1-7.41,9.61,5.9,5.9,0,0,0-.54-.8l-.76-1a7.66,7.66,0,0,0-.68-.79,71.34,71.34,0,0,0,7.14-9,102.56,102.56,0,0,0,6.39-10.87A87.91,87.91,0,0,0,1181,507.88Zm-8.28,19,2.66-2.81.15.07v52.59h-2.81Zm8.13,44.23h50.77v2.74h-50.77Zm3.19-54.72h44.84v2.81H1184Zm4.64,11.4H1224v44.69h-2.89v-42h-29.56v42h-2.89Zm1.52,21.81h32.45v2.66h-32.45Zm.15-10.87h31.85v2.66h-31.85Zm.08,21.89h31.92v2.59h-31.92Zm15.2-52.82,3.27.46c-.41,2.18-.88,4.53-1.41,7.07s-1.06,5-1.6,7.37-1.07,4.43-1.63,6.15l-2.66-.45c.51-1.78,1-3.88,1.52-6.31s1-4.91,1.48-7.45S1205.39,509.83,1205.59,507.8Z" transform="translate(-110.91 -284.12)"/></svg>